<mxfile host="app.diagrams.net" agent="Mozilla/5.0 (Windows NT 10.0; Win64; x64) AppleWebKit/537.36 (KHTML, like Gecko) Chrome/133.0.0.0 Safari/537.36" version="26.0.14">
  <diagram name="Page-1" id="lMPPSyxQ9ihXqq-34sMT">
    <mxGraphModel dx="1522" dy="672" grid="1" gridSize="10" guides="1" tooltips="1" connect="1" arrows="1" fold="1" page="1" pageScale="1" pageWidth="850" pageHeight="1100" math="0" shadow="0">
      <root>
        <mxCell id="0" />
        <mxCell id="1" parent="0" />
        <mxCell id="8Lf1zGKXDGWRpxzg6P_H-1" value="Pelanggan" style="swimlane;whiteSpace=wrap;html=1;" parent="1" vertex="1">
          <mxGeometry x="300" y="340" width="500" height="1450" as="geometry">
            <mxRectangle x="140" y="520" width="140" height="30" as="alternateBounds" />
          </mxGeometry>
        </mxCell>
        <mxCell id="8Lf1zGKXDGWRpxzg6P_H-133" style="edgeStyle=orthogonalEdgeStyle;rounded=0;orthogonalLoop=1;jettySize=auto;html=1;" parent="8Lf1zGKXDGWRpxzg6P_H-1" source="8Lf1zGKXDGWRpxzg6P_H-2" target="8Lf1zGKXDGWRpxzg6P_H-128" edge="1">
          <mxGeometry relative="1" as="geometry" />
        </mxCell>
        <mxCell id="8Lf1zGKXDGWRpxzg6P_H-2" value="Start" style="ellipse;whiteSpace=wrap;html=1;" parent="8Lf1zGKXDGWRpxzg6P_H-1" vertex="1">
          <mxGeometry x="199" y="50" width="115" height="50" as="geometry" />
        </mxCell>
        <mxCell id="8Lf1zGKXDGWRpxzg6P_H-15" value="Memberikan List pesanan" style="rounded=0;whiteSpace=wrap;html=1;" parent="8Lf1zGKXDGWRpxzg6P_H-1" vertex="1">
          <mxGeometry x="195" y="230" width="123" height="50" as="geometry" />
        </mxCell>
        <mxCell id="YRc034qmBD4td9HDPw1p-21" style="edgeStyle=orthogonalEdgeStyle;rounded=0;orthogonalLoop=1;jettySize=auto;html=1;" edge="1" parent="8Lf1zGKXDGWRpxzg6P_H-1" source="8Lf1zGKXDGWRpxzg6P_H-94" target="YRc034qmBD4td9HDPw1p-6">
          <mxGeometry relative="1" as="geometry" />
        </mxCell>
        <mxCell id="YRc034qmBD4td9HDPw1p-22" value="tidak" style="edgeLabel;html=1;align=center;verticalAlign=middle;resizable=0;points=[];" vertex="1" connectable="0" parent="YRc034qmBD4td9HDPw1p-21">
          <mxGeometry x="0.0233" y="1" relative="1" as="geometry">
            <mxPoint as="offset" />
          </mxGeometry>
        </mxCell>
        <mxCell id="8Lf1zGKXDGWRpxzg6P_H-94" value="Cash?" style="rhombus;whiteSpace=wrap;html=1;" parent="8Lf1zGKXDGWRpxzg6P_H-1" vertex="1">
          <mxGeometry x="208.4400000000001" y="625" width="83.12" height="70" as="geometry" />
        </mxCell>
        <mxCell id="8Lf1zGKXDGWRpxzg6P_H-125" style="edgeStyle=orthogonalEdgeStyle;rounded=0;orthogonalLoop=1;jettySize=auto;html=1;" parent="8Lf1zGKXDGWRpxzg6P_H-1" source="8Lf1zGKXDGWRpxzg6P_H-117" target="8Lf1zGKXDGWRpxzg6P_H-118" edge="1">
          <mxGeometry relative="1" as="geometry" />
        </mxCell>
        <mxCell id="8Lf1zGKXDGWRpxzg6P_H-117" value="Barang diterima" style="rounded=0;whiteSpace=wrap;html=1;" parent="8Lf1zGKXDGWRpxzg6P_H-1" vertex="1">
          <mxGeometry x="195" y="1250" width="123" height="50" as="geometry" />
        </mxCell>
        <mxCell id="8Lf1zGKXDGWRpxzg6P_H-118" value="End" style="ellipse;whiteSpace=wrap;html=1;" parent="8Lf1zGKXDGWRpxzg6P_H-1" vertex="1">
          <mxGeometry x="199" y="1340" width="115" height="50" as="geometry" />
        </mxCell>
        <mxCell id="YRc034qmBD4td9HDPw1p-3" style="edgeStyle=orthogonalEdgeStyle;rounded=0;orthogonalLoop=1;jettySize=auto;html=1;entryX=0.5;entryY=0;entryDx=0;entryDy=0;" edge="1" parent="8Lf1zGKXDGWRpxzg6P_H-1" source="8Lf1zGKXDGWRpxzg6P_H-128" target="8Lf1zGKXDGWRpxzg6P_H-15">
          <mxGeometry relative="1" as="geometry" />
        </mxCell>
        <mxCell id="8Lf1zGKXDGWRpxzg6P_H-128" value="Memesan melalui whatsapp" style="rounded=0;whiteSpace=wrap;html=1;" parent="8Lf1zGKXDGWRpxzg6P_H-1" vertex="1">
          <mxGeometry x="195" y="140" width="123" height="50" as="geometry" />
        </mxCell>
        <mxCell id="YRc034qmBD4td9HDPw1p-6" value="Mengirimkan bukti pembayaran" style="rounded=0;whiteSpace=wrap;html=1;" vertex="1" parent="8Lf1zGKXDGWRpxzg6P_H-1">
          <mxGeometry x="340" y="635" width="123" height="50" as="geometry" />
        </mxCell>
        <mxCell id="YRc034qmBD4td9HDPw1p-16" value="Penjemputan pesanan" style="rhombus;whiteSpace=wrap;html=1;" vertex="1" parent="8Lf1zGKXDGWRpxzg6P_H-1">
          <mxGeometry x="195.07999999999998" y="830" width="116.59" height="80" as="geometry" />
        </mxCell>
        <mxCell id="YRc034qmBD4td9HDPw1p-23" value="Ambil di toko" style="rounded=0;whiteSpace=wrap;html=1;" vertex="1" parent="8Lf1zGKXDGWRpxzg6P_H-1">
          <mxGeometry x="88.33999999999997" y="950" width="100" height="30" as="geometry" />
        </mxCell>
        <mxCell id="YRc034qmBD4td9HDPw1p-24" value="diantar alamat" style="rounded=0;whiteSpace=wrap;html=1;" vertex="1" parent="8Lf1zGKXDGWRpxzg6P_H-1">
          <mxGeometry x="311.66999999999996" y="950" width="100" height="30" as="geometry" />
        </mxCell>
        <mxCell id="YRc034qmBD4td9HDPw1p-28" style="edgeStyle=orthogonalEdgeStyle;rounded=0;orthogonalLoop=1;jettySize=auto;html=1;" edge="1" parent="8Lf1zGKXDGWRpxzg6P_H-1" source="YRc034qmBD4td9HDPw1p-16" target="YRc034qmBD4td9HDPw1p-23">
          <mxGeometry relative="1" as="geometry">
            <Array as="points">
              <mxPoint x="253" y="930" />
              <mxPoint x="138" y="930" />
            </Array>
          </mxGeometry>
        </mxCell>
        <mxCell id="YRc034qmBD4td9HDPw1p-29" style="edgeStyle=orthogonalEdgeStyle;rounded=0;orthogonalLoop=1;jettySize=auto;html=1;entryX=0.5;entryY=0;entryDx=0;entryDy=0;" edge="1" parent="8Lf1zGKXDGWRpxzg6P_H-1" source="YRc034qmBD4td9HDPw1p-16" target="YRc034qmBD4td9HDPw1p-24">
          <mxGeometry relative="1" as="geometry" />
        </mxCell>
        <mxCell id="YRc034qmBD4td9HDPw1p-46" value="Melakukan pembayaran" style="rounded=0;whiteSpace=wrap;html=1;" vertex="1" parent="8Lf1zGKXDGWRpxzg6P_H-1">
          <mxGeometry x="199" y="1140" width="123" height="50" as="geometry" />
        </mxCell>
        <mxCell id="8Lf1zGKXDGWRpxzg6P_H-48" value="Pemilik Toko" style="swimlane;whiteSpace=wrap;html=1;" parent="1" vertex="1">
          <mxGeometry x="800" y="340" width="440" height="1450" as="geometry">
            <mxRectangle x="140" y="520" width="140" height="30" as="alternateBounds" />
          </mxGeometry>
        </mxCell>
        <mxCell id="8Lf1zGKXDGWRpxzg6P_H-67" value="Melakukan konfirmasi kepada pelanggan" style="rounded=0;whiteSpace=wrap;html=1;" parent="8Lf1zGKXDGWRpxzg6P_H-48" vertex="1">
          <mxGeometry x="280" y="425" width="120" height="40" as="geometry" />
        </mxCell>
        <mxCell id="8Lf1zGKXDGWRpxzg6P_H-76" style="edgeStyle=orthogonalEdgeStyle;rounded=0;orthogonalLoop=1;jettySize=auto;html=1;entryX=0.5;entryY=0;entryDx=0;entryDy=0;" parent="8Lf1zGKXDGWRpxzg6P_H-48" source="8Lf1zGKXDGWRpxzg6P_H-73" target="8Lf1zGKXDGWRpxzg6P_H-74" edge="1">
          <mxGeometry relative="1" as="geometry" />
        </mxCell>
        <mxCell id="8Lf1zGKXDGWRpxzg6P_H-73" value="Melakukan cek stok barang secara manual" style="rounded=0;whiteSpace=wrap;html=1;" parent="8Lf1zGKXDGWRpxzg6P_H-48" vertex="1">
          <mxGeometry x="120" y="320" width="123" height="50" as="geometry" />
        </mxCell>
        <mxCell id="8Lf1zGKXDGWRpxzg6P_H-102" style="edgeStyle=orthogonalEdgeStyle;rounded=0;orthogonalLoop=1;jettySize=auto;html=1;entryX=0;entryY=0.5;entryDx=0;entryDy=0;" parent="8Lf1zGKXDGWRpxzg6P_H-48" source="8Lf1zGKXDGWRpxzg6P_H-74" target="8Lf1zGKXDGWRpxzg6P_H-67" edge="1">
          <mxGeometry relative="1" as="geometry" />
        </mxCell>
        <mxCell id="8Lf1zGKXDGWRpxzg6P_H-103" value="Tidak" style="edgeLabel;html=1;align=center;verticalAlign=middle;resizable=0;points=[];" parent="8Lf1zGKXDGWRpxzg6P_H-102" vertex="1" connectable="0">
          <mxGeometry x="-0.2753" y="-1" relative="1" as="geometry">
            <mxPoint as="offset" />
          </mxGeometry>
        </mxCell>
        <mxCell id="8Lf1zGKXDGWRpxzg6P_H-104" style="edgeStyle=orthogonalEdgeStyle;rounded=0;orthogonalLoop=1;jettySize=auto;html=1;" parent="8Lf1zGKXDGWRpxzg6P_H-48" source="8Lf1zGKXDGWRpxzg6P_H-74" target="8Lf1zGKXDGWRpxzg6P_H-100" edge="1">
          <mxGeometry relative="1" as="geometry" />
        </mxCell>
        <mxCell id="8Lf1zGKXDGWRpxzg6P_H-156" value="Iya" style="edgeLabel;html=1;align=center;verticalAlign=middle;resizable=0;points=[];" parent="8Lf1zGKXDGWRpxzg6P_H-104" vertex="1" connectable="0">
          <mxGeometry x="-0.0612" y="-1" relative="1" as="geometry">
            <mxPoint as="offset" />
          </mxGeometry>
        </mxCell>
        <mxCell id="8Lf1zGKXDGWRpxzg6P_H-74" value="Stok&amp;nbsp;&lt;div&gt;Tersedia?&lt;/div&gt;" style="rhombus;whiteSpace=wrap;html=1;" parent="8Lf1zGKXDGWRpxzg6P_H-48" vertex="1">
          <mxGeometry x="139.94" y="410" width="83.12" height="70" as="geometry" />
        </mxCell>
        <mxCell id="YRc034qmBD4td9HDPw1p-35" style="edgeStyle=orthogonalEdgeStyle;rounded=0;orthogonalLoop=1;jettySize=auto;html=1;" edge="1" parent="8Lf1zGKXDGWRpxzg6P_H-48" source="8Lf1zGKXDGWRpxzg6P_H-108" target="YRc034qmBD4td9HDPw1p-34">
          <mxGeometry relative="1" as="geometry" />
        </mxCell>
        <mxCell id="8Lf1zGKXDGWRpxzg6P_H-108" value="Memberikan konfirmasi pembayaran berhasil&amp;nbsp;" style="rounded=0;whiteSpace=wrap;html=1;" parent="8Lf1zGKXDGWRpxzg6P_H-48" vertex="1">
          <mxGeometry x="129.94" y="630" width="150.06" height="60" as="geometry" />
        </mxCell>
        <mxCell id="8Lf1zGKXDGWRpxzg6P_H-100" value="Pesananan di catat dalam nota dan dikirimkan ke whatsapp&amp;nbsp;" style="rounded=0;whiteSpace=wrap;html=1;" parent="8Lf1zGKXDGWRpxzg6P_H-48" vertex="1">
          <mxGeometry x="106.5" y="535" width="150" height="60" as="geometry" />
        </mxCell>
        <mxCell id="8Lf1zGKXDGWRpxzg6P_H-91" value="Melakukan pembayaran" style="rounded=0;whiteSpace=wrap;html=1;" parent="8Lf1zGKXDGWRpxzg6P_H-48" vertex="1">
          <mxGeometry x="-311.56" y="540" width="123" height="50" as="geometry" />
        </mxCell>
        <mxCell id="8Lf1zGKXDGWRpxzg6P_H-122" style="edgeStyle=orthogonalEdgeStyle;rounded=0;orthogonalLoop=1;jettySize=auto;html=1;entryX=1;entryY=0.5;entryDx=0;entryDy=0;" parent="8Lf1zGKXDGWRpxzg6P_H-48" source="8Lf1zGKXDGWRpxzg6P_H-100" target="8Lf1zGKXDGWRpxzg6P_H-91" edge="1">
          <mxGeometry relative="1" as="geometry" />
        </mxCell>
        <mxCell id="YRc034qmBD4td9HDPw1p-34" value="Memberikan opsi pengambilan pesananan" style="rounded=0;whiteSpace=wrap;html=1;" vertex="1" parent="8Lf1zGKXDGWRpxzg6P_H-48">
          <mxGeometry x="129.94" y="750" width="150.06" height="60" as="geometry" />
        </mxCell>
        <mxCell id="YRc034qmBD4td9HDPw1p-45" style="edgeStyle=orthogonalEdgeStyle;rounded=0;orthogonalLoop=1;jettySize=auto;html=1;entryX=0.5;entryY=0;entryDx=0;entryDy=0;" edge="1" parent="8Lf1zGKXDGWRpxzg6P_H-48" source="YRc034qmBD4td9HDPw1p-38" target="YRc034qmBD4td9HDPw1p-43">
          <mxGeometry relative="1" as="geometry" />
        </mxCell>
        <mxCell id="YRc034qmBD4td9HDPw1p-38" value="mengantarkan pesanan" style="rounded=0;whiteSpace=wrap;html=1;" vertex="1" parent="8Lf1zGKXDGWRpxzg6P_H-48">
          <mxGeometry x="120" y="935" width="150.06" height="60" as="geometry" />
        </mxCell>
        <mxCell id="YRc034qmBD4td9HDPw1p-43" value="Sudah melakukan pembayaran ?" style="rhombus;whiteSpace=wrap;html=1;" vertex="1" parent="8Lf1zGKXDGWRpxzg6P_H-48">
          <mxGeometry x="121.75999999999999" y="1030" width="146.53" height="90" as="geometry" />
        </mxCell>
        <mxCell id="8Lf1zGKXDGWRpxzg6P_H-153" style="edgeStyle=orthogonalEdgeStyle;rounded=0;orthogonalLoop=1;jettySize=auto;html=1;entryX=0;entryY=0.5;entryDx=0;entryDy=0;" parent="1" source="8Lf1zGKXDGWRpxzg6P_H-15" target="8Lf1zGKXDGWRpxzg6P_H-73" edge="1">
          <mxGeometry relative="1" as="geometry">
            <Array as="points">
              <mxPoint x="557" y="685" />
            </Array>
          </mxGeometry>
        </mxCell>
        <mxCell id="8Lf1zGKXDGWRpxzg6P_H-155" style="edgeStyle=orthogonalEdgeStyle;rounded=0;orthogonalLoop=1;jettySize=auto;html=1;entryX=0.833;entryY=1.018;entryDx=0;entryDy=0;entryPerimeter=0;" parent="1" source="8Lf1zGKXDGWRpxzg6P_H-67" target="8Lf1zGKXDGWRpxzg6P_H-15" edge="1">
          <mxGeometry relative="1" as="geometry">
            <Array as="points">
              <mxPoint x="1140" y="640" />
              <mxPoint x="598" y="640" />
            </Array>
          </mxGeometry>
        </mxCell>
        <mxCell id="8Lf1zGKXDGWRpxzg6P_H-97" style="edgeStyle=orthogonalEdgeStyle;rounded=0;orthogonalLoop=1;jettySize=auto;html=1;" parent="1" source="8Lf1zGKXDGWRpxzg6P_H-91" target="8Lf1zGKXDGWRpxzg6P_H-94" edge="1">
          <mxGeometry relative="1" as="geometry" />
        </mxCell>
        <mxCell id="YRc034qmBD4td9HDPw1p-9" style="edgeStyle=orthogonalEdgeStyle;rounded=0;orthogonalLoop=1;jettySize=auto;html=1;entryX=0;entryY=0.5;entryDx=0;entryDy=0;" edge="1" parent="1" source="YRc034qmBD4td9HDPw1p-6" target="8Lf1zGKXDGWRpxzg6P_H-108">
          <mxGeometry relative="1" as="geometry" />
        </mxCell>
        <mxCell id="YRc034qmBD4td9HDPw1p-36" style="edgeStyle=orthogonalEdgeStyle;rounded=0;orthogonalLoop=1;jettySize=auto;html=1;entryX=0;entryY=0.5;entryDx=0;entryDy=0;" edge="1" parent="1" source="8Lf1zGKXDGWRpxzg6P_H-94" target="YRc034qmBD4td9HDPw1p-34">
          <mxGeometry relative="1" as="geometry">
            <Array as="points">
              <mxPoint x="550" y="1120" />
            </Array>
          </mxGeometry>
        </mxCell>
        <mxCell id="YRc034qmBD4td9HDPw1p-37" style="edgeStyle=orthogonalEdgeStyle;rounded=0;orthogonalLoop=1;jettySize=auto;html=1;entryX=1;entryY=0.5;entryDx=0;entryDy=0;" edge="1" parent="1" source="YRc034qmBD4td9HDPw1p-34" target="YRc034qmBD4td9HDPw1p-16">
          <mxGeometry relative="1" as="geometry">
            <Array as="points">
              <mxPoint x="1005" y="1210" />
            </Array>
          </mxGeometry>
        </mxCell>
        <mxCell id="YRc034qmBD4td9HDPw1p-39" style="edgeStyle=orthogonalEdgeStyle;rounded=0;orthogonalLoop=1;jettySize=auto;html=1;entryX=0;entryY=0.5;entryDx=0;entryDy=0;" edge="1" parent="1" source="YRc034qmBD4td9HDPw1p-24" target="YRc034qmBD4td9HDPw1p-38">
          <mxGeometry relative="1" as="geometry" />
        </mxCell>
        <mxCell id="YRc034qmBD4td9HDPw1p-55" style="edgeStyle=orthogonalEdgeStyle;rounded=0;orthogonalLoop=1;jettySize=auto;html=1;entryX=0;entryY=0.5;entryDx=0;entryDy=0;" edge="1" parent="1" source="YRc034qmBD4td9HDPw1p-23" target="YRc034qmBD4td9HDPw1p-43">
          <mxGeometry relative="1" as="geometry">
            <Array as="points">
              <mxPoint x="438" y="1415" />
            </Array>
          </mxGeometry>
        </mxCell>
        <mxCell id="YRc034qmBD4td9HDPw1p-58" style="edgeStyle=orthogonalEdgeStyle;rounded=0;orthogonalLoop=1;jettySize=auto;html=1;entryX=1;entryY=0.5;entryDx=0;entryDy=0;" edge="1" parent="1" source="YRc034qmBD4td9HDPw1p-43" target="YRc034qmBD4td9HDPw1p-46">
          <mxGeometry relative="1" as="geometry">
            <Array as="points">
              <mxPoint x="995" y="1505" />
            </Array>
          </mxGeometry>
        </mxCell>
        <mxCell id="YRc034qmBD4td9HDPw1p-59" value="Belum" style="edgeLabel;html=1;align=center;verticalAlign=middle;resizable=0;points=[];" vertex="1" connectable="0" parent="YRc034qmBD4td9HDPw1p-58">
          <mxGeometry x="-0.0549" y="-3" relative="1" as="geometry">
            <mxPoint as="offset" />
          </mxGeometry>
        </mxCell>
        <mxCell id="YRc034qmBD4td9HDPw1p-60" style="edgeStyle=orthogonalEdgeStyle;rounded=0;orthogonalLoop=1;jettySize=auto;html=1;entryX=1;entryY=0.5;entryDx=0;entryDy=0;" edge="1" parent="1" source="YRc034qmBD4td9HDPw1p-43" target="8Lf1zGKXDGWRpxzg6P_H-117">
          <mxGeometry relative="1" as="geometry">
            <Array as="points">
              <mxPoint x="995" y="1615" />
            </Array>
          </mxGeometry>
        </mxCell>
        <mxCell id="YRc034qmBD4td9HDPw1p-61" value="Sudah" style="text;html=1;align=center;verticalAlign=middle;resizable=0;points=[];autosize=1;strokeColor=none;fillColor=none;" vertex="1" parent="1">
          <mxGeometry x="860" y="1608" width="60" height="30" as="geometry" />
        </mxCell>
      </root>
    </mxGraphModel>
  </diagram>
</mxfile>
